PathFileType	4	(X/Y/Z)	pose_F01_0-96.trc
DataRate	CameraRate	NumFrames	NumMarkers	Units	OrigDataRate	OrigDataStartFrame	OrigNumFrames
30	30	7	21	m	30	36	96
Frame#	Time	CHip			RHip			RKnee			RAnkle			RBigToe			RSmallToe			RHeel			LHip			LKnee			LAnkle			LBigToe			LSmallToe			LHeel			Neck			Nose			RShoulder			RElbow			RWrist			LShoulder			LElbow			LWrist			
		X1	Y1	Z1	X2	Y2	Z2	X3	Y3	Z3	X4	Y4	Z4	X5	Y5	Z5	X6	Y6	Z6	X7	Y7	Z7	X8	Y8	Z8	X9	Y9	Z9	X10	Y10	Z10	X11	Y11	Z11	X12	Y12	Z12	X13	Y13	Z13	X14	Y14	Z14	X15	Y15	Z15	X16	Y16	Z16	X17	Y17	Z17	X18	Y18	Z18	X19	Y19	Z19	X20	Y20	Z20	X21	Y21	Z21	
36	1.2	-0.18756500078584085	1.8707842830293357	-0.5638532407803551	-0.20489142654897496	1.8694382452125895	-0.5014288116024542	-0.1877511943910218	1.7184704768047774	-0.484059280734089	-0.17905415519435683	1.570724463946392	-0.473102344140985							-0.17243019043609378	1.5577011774662808	-0.47399619717901087	-0.17222627063114163	1.8747600995392146	-0.6190393864350304	-0.16337324993792476	1.7203686569220569	-0.6028304417515119	-0.16175244754526544	1.5736020874022576	-0.5701145956763621	-0.19998249599614246	1.534052883952156	-0.5950189913419499	-0.18583280631331525	1.5418717364559948	-0.6094356430217466	-0.15653726137082777	1.5580848534054874	-0.5608806513022011	-0.17790412390019322	2.0415097183835917	-0.5782476295508463	-0.21002511278489958	2.1132509254238507	-0.6019437449402847	-0.1994988500360442	2.038229773771238	-0.4955530428624866	-0.20278473442494144	1.944276575747127	-0.44919444559484356	-0.21294119751434729	1.8650375407950024	-0.44831546386471893	-0.15316631828185973	2.0453432608088757	-0.6579732234144091	-0.6729553185971542	1.9259520218332755	-0.11072341527945784	-0.1472280925730279	1.880721258008773	-0.6800530828527247
37	1.2333333333333334	-0.18746684157387603	1.8735304401171344	-0.5644838499210748	-0.20578892297781726	1.8718890333061997	-0.5050674122514859	-0.18879394897907578	1.7191341973967849	-0.48749213362029303	-0.17932921071431704	1.5694644314928137	-0.4724713926226439							-0.172507459326408	1.5580164890174568	-0.4739250077864241	-0.17105018863043445	1.8763766503906656	-0.6247893766422477	-0.1636507121816155	1.719286282853948	-0.6024381683866117	-0.1607306141178736	1.5762161806782382	-0.5670678935210064	-0.20014591197834528	1.5354609040518028	-0.5947806783284121	-0.18367458247231566	1.5421333363484642	-0.6116468418953335	-0.15753992096754507	1.5598025607592167	-0.5560316353420012	-0.1777810396490319	2.0427561976340662	-0.5782618958626178	-0.2120335361584345	2.1132254689260987	-0.5999082876499852	-0.19758704564084434	2.0383258755823928	-0.49771327990491626	-0.20172276838795852	1.9479251217059799	-0.45504057558402805	-0.2169324897171088	1.8706220043496586	-0.45301327353345094	-0.15314919905545757	2.0454907111953906	-0.6580111966723452	-0.9434611659955269	1.9075563734730032	0.1717284946369314	-0.1456509883856573	1.8828620201332695	-0.6929497539708912
38	1.2666666666666666	-0.18748133832051922	1.8732376674456743	-0.5643601427582532	-0.20574192598663793	1.871681103534055	-0.5049852846354745	-0.1885686157274634	1.7203405794624522	-0.4879194766836581	-0.1780690460162768	1.570906761236199	-0.47855367667707516							-0.1697728734276628	1.5568703005036777	-0.4770508005907965	-0.17309345693685874	1.8761745284113989	-0.6225025750136187	-0.1633379736797353	1.7199431802933163	-0.6028702706841794	-0.1606954065717212	1.5732840835164534	-0.566729848947787	-0.2015732265601856	1.5339349518321692	-0.5886453856236348	-0.18521585978719443	1.5407387240646542	-0.6054841445216365	-0.15651127288748434	1.5581007884533913	-0.5607460842055465	-0.177827104639412	2.042681631865169	-0.5782504660104851	-0.21006050274951135	2.1133097055263073	-0.6020015133961306	-0.19760848865521954	2.0384010985022907	-0.4978242082450536	-0.1957385585587676	1.9493274683962278	-0.46161549182094325	-0.22086829971811628	1.8738418003335704	-0.43972856732772486	-0.15318945181606114	2.045292044029517	-0.6579217694087556	-1.2139670133938996	1.8891607251127311	0.45418040455332065	-0.14407388419828665	1.8850027822577662	-0.7058464250890577
39	1.3	-0.18743710104216668	1.875074843650592	-0.5646837594217065	-0.20554252125669087	1.874450050841598	-0.5054418439274958	-0.18939262244608945	1.7218828978101814	-0.49155017908945814	-0.18002651812697962	1.5708168372503972	-0.47637891601690574							-0.17184536126429323	1.5573385684215737	-0.47495117760407896	-0.17471026212740629	1.8802585505249247	-0.6294271557630648	-0.16318193516109836	1.7217008594878271	-0.6032009926726462	-0.15955373217068658	1.5748323404912707	-0.5641133954469711	-0.19802679511068283	1.535559724910899	-0.5969122030275666	-0.18271121165697268	1.5421738506424074	-0.6084473113815834	-0.15719386992075943	1.560746991781909	-0.5565888816399788	-0.1796131347975125	2.042829386925611	-0.5844240556801179	-0.21203096390594095	2.113243340854105	-0.5999088768402963	-0.19762820653669771	2.0396001104485304	-0.4983339578904969	-0.1968708713905476	1.9507899683512213	-0.4567013533939661	-0.23137580027122423	1.877127505684804	-0.4147647010977137	-0.15487134241202702	2.045698604143006	-0.6640459177792681	-1.4844728607922724	1.870765076752459	0.7366323144697098	-0.14249678001091604	1.8871435443822626	-0.7187430962072242
40	1.3333333333333333	-0.188439352575263	1.873176665765044	-0.5675679853789023	-0.2058156986249079	1.8708005479362915	-0.5052255443135418	-0.1887873274507195	1.7190940264578154	-0.4875476190028392	-0.17929493778421063	1.5691366212190894	-0.47242340415877854							-0.17243502647127748	1.554861974435673	-0.4736151853039296	-0.1749029073908979	1.875748176105065	-0.6289050312918398	-0.1634103251155227	1.7178676600762766	-0.6024929471445536	-0.16250034337441688	1.5746223288062156	-0.5651133633029413	-0.1999689688670147	1.5342381430242695	-0.5950017808268427	-0.18579571179398807	1.5419230101860624	-0.6094183037640233	-0.15739584258183084	1.5592146089396277	-0.5560182944275923	-0.17959251542286847	2.042906649191717	-0.5844649807604841	-0.21204039257380616	2.113283150931822	-0.5998335060404248	-0.1984734396394626	2.0397860836735164	-0.501342453498989	-0.19697531468828966	1.9498932011459094	-0.45645368079617094	-0.23609512682234646	1.8834618893607777	-0.40594309755628244	-0.15489821690922367	2.0457393922438674	-0.664036625117941	-1.4780978467290182	1.869357648124012	0.7291787175112201	-0.13725413436324024	1.898216242179311	-0.7483013248993393
41	1.3666666666666667	-0.18843673181693044	1.8715210916095564	-0.5672553211384784	-0.20389779071367983	1.8692718775826167	-0.5070062128873025	-0.1895663802071059	1.7206348758174406	-0.49119110935826676	-0.18008034532925718	1.5709501360815805	-0.4763272981961065							-0.17203968687364818	1.5581507867699373	-0.47488142828093716	-0.17502984283116593	1.875255078074751	-0.6288022420520568	-0.16128307482723975	1.7205848423752348	-0.6051076589390487	-0.16176744266936532	1.5758974741511633	-0.5616197376823557	-0.19770799383135393	1.5340509573220529	-0.5973049771644597	-0.1815246883976295	1.542180859538272	-0.6138690907719005	-0.1576451338023677	1.5602557369580174	-0.5559094415687174	-0.1795610269440173	2.042980385508989	-0.5844164130346046	-0.21202171336473635	2.1132976611615346	-0.5998010117025873	-0.19756994161416097	2.0396303086367817	-0.49840829660718405	-0.19888102358729517	1.9500862492714595	-0.4541255521782056	-0.24434237500708655	1.8875724890467918	-0.3922302519427434	-0.15477212759105638	2.0469844470585805	-0.663841897888799	-1.4946670343915671	1.8716055667286888	0.7593782082417277	-0.12871158211626965	1.909821703177494	-0.7620921847672042
42	1.4	-0.1886795517611145	1.8713243351687214	-0.567336908359158	-0.20414960379858635	1.8691736788050235	-0.5070297856047573	-0.18958909569108198	1.7210257843534462	-0.4912058021232506	-0.17957979650874523	1.5707616380978722	-0.4746795528027916							-0.17178635740393644	1.5541792063476085	-0.4746147903618823	-0.17381519452601238	1.8750581196133467	-0.6342280178974693	-0.16344287969696267	1.7206616273319435	-0.6028381214186503	-0.16258169869059652	1.5747116759844157	-0.5650801131975379	-0.19778119518048515	1.5342858478427681	-0.5973481912651211	-0.18152993750830296	1.542177527561624	-0.613892669053107	-0.15952338205552277	1.5591507047639261	-0.5537906164103357	-0.17952845863858216	2.0429526623046135	-0.5844626261048464	-0.21206842140353913	2.1122275656411245	-0.5999886130703669	-0.19564608789368348	2.0397752375777536	-0.5004926311002147	-0.19903593015182225	1.9528213204533516	-0.45501120233597897	-0.2391355442384239	1.8988418508044664	-0.3859367720636484	-0.15473384434517212	2.0471207383135783	-0.6639093608730593	-1.487932995918896	1.8735820181040934	0.7467999745677171	-0.1272073251997012	1.9182104490206549	-0.7686491335330482
